<svg xmlns="http://www.w3.org/2000/svg" version="1.1" xmlns:xlink="http://www.w3.org/1999/xlink" xmlns:svgjs="http://svgjs.com/svgjs" width="100%" height="100%" viewBox="0 0 1000 600"><rect width="1000" height="600" x="0" y="0" fill="#b8732d"/><g><rect width="333.3333333333333" height="333.3333333333333" y="255.04144839404125" fill=" #724705" transform="matrix(0.536897381043915,0,0,0.5368973810439149,0,73.58604801864053)" x="232.8191680908203"/><path d="M411.39835724584464 496.70811868125696L411.39835724584464 496.70811868125696Q396.2631187299455 496.70811868125696 383.83265667886485 491.7301790172825Q371.4021946277842 486.75223935330814 362.51096135513626 477.2279732910218Q353.5909538647774 467.7037072287354 348.72811107164637 453.71943742126973Q343.86526827851526 439.735167613804 343.86526827851526 421.7225073268214L343.86526827851526 421.7225073268214Q343.86526827851526 403.68107282212793 349.3323696435739 389.69680301466224Q354.8282452263433 375.71253320719654 364.1510917646538 366.1882671449101Q373.4739383029643 356.6640010826238 385.9044003540449 351.6860614186494Q398.3348624051256 346.708121754675 412.4342290834347 346.708121754675L412.4342290834347 346.708121754675Q421.32546235608265 346.708121754675 428.4902425660805 347.9454131162409Q435.62624855836754 349.2114786955176 440.92070461716116 350.8516091050352Q446.18638645824393 352.5205137322636 449.52419571270076 354.1606441417812Q452.8332307494468 355.82954876900965 454.0705221110127 356.6640010826238L454.0705221110127 356.6640010826238L448.25813013342406 373.2379504840647Q446.4165801999306 372.0006591224988 442.8773514214979 370.5331740192462Q439.3668968607761 369.0944631337045 434.9068931155967 367.62697803045194Q430.4468893704173 366.1882671449101 425.1812075293345 365.2674921781635Q419.8867514705409 364.3179429937059 414.5059727586148 364.3179429937059L414.5059727586148 364.3179429937059Q403.1113825451242 364.3179429937059 393.98995553078953 368.26001082009026Q384.8685285164549 372.20207864647466 378.45187796693875 379.6546010335809Q372.03522741742256 387.1071234206871 368.6110955098332 397.78235819140684Q365.18696360224385 408.4575929621265 365.18696360224385 421.7225073268214L365.18696360224385 421.7225073268214Q365.18696360224385 434.55580842585374 368.20825646188155 445.1159463257301Q371.2007751038083 455.6760842256065 377.2145866053728 463.24370348355603Q383.22839810693733 470.8113227415056 392.2347282504286 474.95481009186585Q401.2410583939199 479.09829744222606 413.26868139704885 479.09829744222606L413.26868139704885 479.09829744222606Q427.13785433367127 479.09829744222606 436.2592813480059 476.19210145343175Q445.38070836234056 473.2859054646374 449.9270347606524 471.01274226548145L449.9270347606524 471.01274226548145L455.1063939486027 487.5866916669223Q453.66768306306096 488.6225635045124 449.9270347606524 490.17637126089744Q446.18638645824393 491.7301790172825 440.604188222342 493.19766412053514Q435.02198998644 494.63637500607683 427.54069338162293 495.6722468436669Q420.08817099451676 496.70811868125696 411.39835724584464 496.70811868125696Z " fill="white" transform="matrix(0.536897381043915,0,0,0.5368973810439149,0,73.58604801864053)"/><path d="M667.2013262304718 494.43419317976986L649.4858316401401 494.43419317976986L649.4858316401401 349.7488403464947L667.2013262304718 346.7081211257662L667.2013262304718 397.3427064100721Q672.1458000937434 395.438951767529 677.7512998745647 394.38131029944947Q683.3832406920881 393.35010986807197 688.8829763261015 393.35010986807197L688.8829763261015 393.35010986807197Q700.7021197318898 393.35010986807197 708.5022255589761 396.6816804925224Q716.3023313860624 400.0132511169728 720.9823948823141 406.01536644832396Q725.6360173418639 411.9910407429731 727.539771984407 420.37284937750314Q729.4435266269502 428.75465801203313 729.4435266269502 438.8551340321923L729.4435266269502 438.8551340321923L729.4435266269502 494.43419317976986L711.7280320366185 494.43419317976986L711.7280320366185 442.6626433172785Q711.7280320366185 433.51404461839087 710.511744348327 427.03599062640393Q709.2690156233336 420.55793663441705 706.413383659519 416.56534009241693Q703.5577516957044 412.5727435504168 698.7983650893467 410.7747530546817Q694.038978482989 408.95032152224456 686.9792216835583 408.95032152224456L686.9792216835583 408.95032152224456Q684.1235897197437 408.95032152224456 681.0828704990151 409.3469370727744Q678.0421512782866 409.7171115866022 675.2922834612798 410.193050247238Q672.5159746075713 410.6689889078737 670.3213685613063 411.25069171531743Q668.1532035517432 411.8059534860592 667.2013262304718 412.202569036589L667.2013262304718 412.202569036589L667.2013262304718 494.43419317976986ZM752.658756851295 445.12165973056335L752.658756851295 445.12165973056335Q752.658756851295 431.98046448967557 756.4662661363811 422.1972809099402Q760.2737754214675 412.3876562935029 766.5667421565404 405.909602301516Q772.8597088916135 399.4315483095291 781.0299892325274 396.2057418318866Q789.2267106101438 392.95349431754215 797.7936065015876 392.95349431754215L797.7936065015876 392.95349431754215Q817.7830302482901 392.95349431754215 828.438768039191 405.43366364088024Q839.094505830092 417.9138329642183 839.094505830092 443.40299234493415L839.094505830092 443.40299234493415Q839.094505830092 444.5663979598216 839.094505830092 446.36438845555676Q839.094505830092 448.1623789512919 838.9094185731781 449.6959590800071L838.9094185731781 449.6959590800071L771.1410415059843 449.6959590800071Q772.2780060841696 465.11108347726577 780.078111911256 473.122717597968Q787.8782177383423 481.1079106819682 804.4567477504884 481.1079106819682L804.4567477504884 481.1079106819682Q813.7904337062901 481.1079106819682 820.1627235514688 479.49500744314696Q826.5350133966479 477.88210420432574 829.7608198742903 476.34852407561044L829.7608198742903 476.34852407561044L832.2462773242771 491.2083867021274Q829.0204708466347 492.9006130510546 820.9295136158266 494.80436769359767Q812.8385563850184 496.7081223361408 802.5529931079452 496.7081223361408L802.5529931079452 496.7081223361408Q789.5968851239716 496.7081223361408 780.183876058064 492.82128994094865Q770.7444259554545 488.9080165090545 764.6629875139972 482.05978800323976Q758.5815490725402 475.211559497425 755.6201529619177 465.7721093948155Q752.658756851295 456.35910032890797 752.658756851295 445.12165973056335ZM771.5112160198121 435.417799260934L820.6386622121047 435.417799260934Q820.8237494690186 423.4135685982317 814.6365468807535 415.71922691795334Q808.4493442924886 407.998444200973 797.6085192446737 407.998444200973L797.6085192446737 407.998444200973Q791.5006397665145 407.998444200973 786.8470173069647 410.3781375041519Q782.166953810713 412.7578308073307 778.9411473330706 416.56534009241693Q775.7153408554282 420.37284937750314 773.8909093229909 425.3173232407747Q772.0929188272557 430.2882381407484 771.5112160198121 435.417799260934L771.5112160198121 435.417799260934ZM887.6402492149409 481.68961348941195L887.6402492149409 481.68961348941195Q898.5075152994577 481.68961348941195 903.7428405664512 478.8339815255973Q908.9781658334448 475.97834956178264 908.9781658334448 469.68538282670966L908.9781658334448 469.68538282670966Q908.9781658334448 463.2073288347227 903.8221636765572 459.3998195496365Q898.6926025563716 455.59231026455035 886.8734591505831 450.8329236581926L886.8734591505831 450.8329236581926Q881.1621952229539 448.5589945018217 875.9268699559605 446.17930119864286Q870.6915446889668 443.79960789546396 866.8840354038807 440.5473603811195Q863.0765261187946 437.321553903477 860.8025969624236 432.74725455403325Q858.5286678060527 428.1729552045894 858.5286678060527 421.50981395568857L858.5286678060527 421.50981395568857Q858.5286678060527 408.3950597515028 868.232528275682 400.6742770345225Q877.9363887453114 392.95349431754215 894.7000060143714 392.95349431754215L894.7000060143714 392.95349431754215Q898.8776898132855 392.95349431754215 903.0553736121994 393.42943297817794Q907.2594984478155 393.9053716388137 910.8819204759877 394.5928385930654Q914.477901467458 395.2538645106151 917.2542103211667 396.0206545749727Q920.0040781381733 396.76100360262836 921.5376582668887 397.3427064100721L921.5376582668887 397.3427064100721L918.2854107525443 412.5727435504168Q915.4297787887297 411.0391634217016 909.3483403472726 409.4262601828803Q903.2669019058153 407.8133569440591 894.7000060143714 407.8133569440591L894.7000060143714 407.8133569440591Q887.2700747011129 407.8133569440591 881.7438980303975 410.7747530546817Q876.2177213596824 413.7097081286023 876.2177213596824 420.0026748636753L876.2177213596824 420.0026748636753Q876.2177213596824 423.2284813413178 877.4604500846756 425.7139387913046Q878.703178809669 428.1729552045894 881.2679593697619 430.18247399394045Q883.8327399298546 432.1919927832915 887.6402492149409 433.8842191322187Q891.447758500027 435.6028865178479 896.7888479138285 437.5066411603909L896.7888479138285 437.5066411603909Q903.8221636765572 440.1771858672917 909.3483403472726 442.74196642738445Q914.874517017988 445.30674698747725 918.7613494131799 448.7440817587356Q922.674622845074 452.18141652999395 924.7634647445311 457.02012624645766Q926.8523066439882 461.88527699962333 926.8523066439882 468.918592762352L926.8523066439882 468.918592762352Q926.8523066439882 482.6414908106835 916.6725075137231 489.6748065734121Q906.4927083834577 496.7081223361408 887.6402492149409 496.7081223361408L887.6402492149409 496.7081223361408Q874.4990539740531 496.7081223361408 867.0955636974966 494.5399573265778Q859.665632384238 492.34535128031285 856.9950876773373 491.2083867021274L856.9950876773373 491.2083867021274L860.2208941549798 475.97834956178264Q863.2880544124105 477.11531413996806 869.9511956613112 479.38924329633903Q876.6143369102122 481.68961348941195 887.6402492149409 481.68961348941195ZM972.5424180650225 481.68961348941195L972.5424180650225 481.68961348941195Q983.4096841495393 481.68961348941195 988.6450094165327 478.8339815255973Q993.8803346835261 475.97834956178264 993.8803346835261 469.68538282670966L993.8803346835261 469.68538282670966Q993.8803346835261 463.2073288347227 988.7243325266388 459.3998195496365Q983.5947714064532 455.59231026455035 971.8020690373667 450.8329236581926L971.8020690373667 450.8329236581926Q966.0908051097374 448.5589945018217 960.855479842744 446.17930119864286Q955.6201545757506 443.79960789546396 951.8126452906642 440.5473603811195Q948.0051360055782 437.321553903477 945.7047658125052 432.74725455403325Q943.4308366561343 428.1729552045894 943.4308366561343 421.50981395568857L943.4308366561343 421.50981395568857Q943.4308366561343 408.3950597515028 953.1346971257638 400.6742770345225Q962.838557595393 392.95349431754215 979.6021748644532 392.95349431754215L979.6021748644532 392.95349431754215Q983.7798586633671 392.95349431754215 987.983983498983 393.42943297817794Q992.1616672978971 393.9053716388137 995.7840893260693 394.5928385930654Q999.4065113542417 395.2538645106151 1002.1563791712483 396.0206545749727Q1004.9062469882551 396.76100360262836 1006.4398271169703 397.3427064100721L1006.4398271169703 397.3427064100721L1003.2140206393278 412.5727435504168Q1000.3583886755132 411.0391634217016 994.2505091973542 409.4262601828803Q988.1690707558969 407.8133569440591 979.6021748644532 407.8133569440591L979.6021748644532 407.8133569440591Q972.1722435511947 407.8133569440591 966.6460668804791 410.7747530546817Q961.1198902097638 413.7097081286023 961.1198902097638 420.0026748636753L961.1198902097638 420.0026748636753Q961.1198902097638 423.2284813413178 962.3626189347574 425.7139387913046Q963.6053476597506 428.1729552045894 966.1701282198435 430.18247399394045Q968.7349087799362 432.1919927832915 972.5424180650225 433.8842191322187Q976.3499273501086 435.6028865178479 981.69101676391 437.5066411603909L981.69101676391 437.5066411603909Q988.7243325266388 440.1771858672917 994.2505091973542 442.74196642738445Q999.7766858680695 445.30674698747725 1003.6899592999637 448.7440817587356Q1007.5767916951556 452.18141652999395 1009.6656335946127 457.02012624645766Q1011.7809165307717 461.88527699962333 1011.7809165307717 468.918592762352L1011.7809165307717 468.918592762352Q1011.7809165307717 482.6414908106835 1001.5746763638047 489.6748065734121Q991.3948772335395 496.7081223361408 972.5424180650225 496.7081223361408L972.5424180650225 496.7081223361408Q959.4276638608367 496.7081223361408 951.9977325475782 494.5399573265778Q944.5678012343196 492.34535128031285 941.8972565274189 491.2083867021274L941.8972565274189 491.2083867021274L945.1495040417635 475.97834956178264Q948.190223262492 477.11531413996806 954.8533645113928 479.38924329633903Q961.5165057602937 481.68961348941195 972.5424180650225 481.68961348941195ZM1054.0336931805475 494.43419317976986L1035.5778495625605 494.43419317976986L1035.5778495625605 362.4934200368526L1115.1389289988406 362.4934200368526L1115.1389289988406 378.30515998464114L1054.0336931805475 378.30515998464114L1054.0336931805475 418.0989202211322L1108.2907004930257 418.0989202211322L1108.2907004930257 433.6991318753048L1054.0336931805475 433.6991318753048L1054.0336931805475 494.43419317976986ZM1154.3509864278878 395.438951767529L1154.3509864278878 494.43419317976986L1136.6619328742584 494.43419317976986L1136.6619328742584 395.438951767529L1154.3509864278878 395.438951767529ZM1145.4139160226161 377.53836992028346L1145.4139160226161 377.53836992028346Q1140.6545294162584 377.53836992028346 1137.3229587918079 374.391886552747Q1133.9913881673576 371.2718442219125 1133.9913881673576 365.93075480811103L1133.9913881673576 365.93075480811103Q1133.9913881673576 360.5896653943096 1137.3229587918079 357.46962306347507Q1140.6545294162584 354.32313969593855 1145.4139160226161 354.32313969593855L1145.4139160226161 354.32313969593855Q1150.173302628974 354.32313969593855 1153.5048732534244 357.46962306347507Q1156.8364438778747 360.5896653943096 1156.8364438778747 365.93075480811103L1156.8364438778747 365.93075480811103Q1156.8364438778747 371.2718442219125 1153.5048732534244 374.391886552747Q1150.173302628974 377.53836992028346 1145.4139160226161 377.53836992028346ZM1207.8676447127104 481.68961348941195L1207.8676447127104 481.68961348941195Q1218.7084697605253 481.68961348941195 1223.9437950275187 478.8339815255973Q1229.1791202945124 475.97834956178264 1229.1791202945124 469.68538282670966L1229.1791202945124 469.68538282670966Q1229.1791202945124 463.2073288347227 1224.0495591743268 459.3998195496365Q1218.8935570174392 455.59231026455035 1207.1008546483527 450.8329236581926L1207.1008546483527 450.8329236581926Q1201.3895907207236 448.5589945018217 1196.15426545373 446.17930119864286Q1190.9189401867363 443.79960789546396 1187.1114309016502 440.5473603811195Q1183.3039216165641 437.321553903477 1181.0035514234912 432.74725455403325Q1178.7296222671202 428.1729552045894 1178.7296222671202 421.50981395568857L1178.7296222671202 421.50981395568857Q1178.7296222671202 408.3950597515028 1188.4334827367497 400.6742770345225Q1198.137343206379 392.95349431754215 1214.900960475439 392.95349431754215L1214.900960475439 392.95349431754215Q1219.078644274353 392.95349431754215 1223.282769109969 393.42943297817794Q1227.460452908883 393.9053716388137 1231.0828749370553 394.5928385930654Q1234.7052969652275 395.2538645106151 1237.4551647822343 396.0206545749727Q1240.231473635943 396.76100360262836 1241.7386127279563 397.3427064100721L1241.7386127279563 397.3427064100721L1238.5128062503138 412.5727435504168Q1235.6571742864992 411.0391634217016 1229.54929480834 409.4262601828803Q1223.4678563668829 407.8133569440591 1214.900960475439 407.8133569440591L1214.900960475439 407.8133569440591Q1207.4710291621807 407.8133569440591 1201.944852491465 410.7747530546817Q1196.445116857452 413.7097081286023 1196.445116857452 420.0026748636753L1196.445116857452 420.0026748636753Q1196.445116857452 423.2284813413178 1197.6614045457434 425.7139387913046Q1198.9041332707366 428.1729552045894 1201.4689138308295 430.18247399394045Q1204.0601354276241 432.1919927832915 1207.8676447127104 433.8842191322187Q1211.6751539977965 435.6028865178479 1216.989802374896 437.5066411603909L1216.989802374896 437.5066411603909Q1224.0495591743268 440.1771858672917 1229.54929480834 442.74196642738445Q1235.0754714790555 445.30674698747725 1238.9887449109497 448.7440817587356Q1242.8755773061418 452.18141652999395 1244.9908602423006 457.02012624645766Q1247.0797021417577 461.88527699962333 1247.0797021417577 468.918592762352L1247.0797021417577 468.918592762352Q1247.0797021417577 482.6414908106835 1236.8999030114926 489.6748065734121Q1226.6936628445255 496.7081223361408 1207.8676447127104 496.7081223361408L1207.8676447127104 496.7081223361408Q1194.7264494718227 496.7081223361408 1187.2965181585641 494.5399573265778Q1179.8665868453056 492.34535128031285 1177.1960421384051 491.2083867021274L1177.1960421384051 491.2083867021274L1180.4482896527495 475.97834956178264Q1183.489008873478 477.11531413996806 1190.1521501223788 479.38924329633903Q1196.8152913712797 481.68961348941195 1207.8676447127104 481.68961348941195ZM1312.7592373094944 496.7081223361408L1312.7592373094944 496.7081223361408Q1300.7550066467923 496.7081223361408 1291.7121720947125 492.9006130510546Q1282.6693375426328 489.0931037659684 1276.4821349543677 482.24487526015366Q1270.2949323661028 475.3966467543389 1267.2542131453743 465.9836376884314Q1264.2134939246457 456.5441875858219 1264.2134939246457 445.12165973056335L1264.2134939246457 445.12165973056335Q1264.2134939246457 433.6991318753048 1267.545064549096 424.1803586625893Q1270.8766351735464 414.6615854498738 1276.9580736150035 407.70759279725115Q1283.0659530931625 400.78004118133043 1291.8972593516264 396.8667677494363Q1300.7550066467923 392.95349431754215 1311.622272731309 392.95349431754215L1311.622272731309 392.95349431754215Q1318.2854139802098 392.95349431754215 1324.9485552291108 394.11689993242965Q1331.6116964780117 395.2538645106151 1337.6931349194688 397.7128809238999L1337.6931349194688 397.7128809238999L1333.7005383774685 412.7578308073307Q1329.7079418354683 410.85407616478767 1324.4726165684751 409.7171115866022Q1319.2372913014815 408.5801470084167 1313.3144990802361 408.5801470084167L1313.3144990802361 408.5801470084167Q1298.4810774904213 408.5801470084167 1290.5752075165271 417.9138329642183Q1282.6693375426328 427.22107788331783 1282.6693375426328 445.12165973056335L1282.6693375426328 445.12165973056335Q1282.6693375426328 453.13329385126553 1284.4937690750698 459.7964351001664Q1286.2917595708052 466.45957634906716 1290.205033002699 471.2189629554249Q1294.0918653978915 475.97834956178264 1300.1997448760505 478.54313012187544Q1306.2811833175076 481.1079106819682 1315.0331664658656 481.1079106819682L1315.0331664658656 481.1079106819682Q1322.0929232652961 481.1079106819682 1327.8041871929254 479.7858588468688Q1333.5154511205546 478.43736597506745 1336.741257598197 476.93022688305416L1336.741257598197 476.93022688305416L1339.226715048184 491.76364847286914Q1337.6931349194688 492.7155257941407 1334.8375029556541 493.58808000530627Q1331.9818709918395 494.43419317976986 1328.359448963667 495.09521909731956Q1324.7370269354947 495.75624501486925 1320.6651072833888 496.232183675505Q1316.5667465945808 496.7081223361408 1312.7592373094944 496.7081223361408ZM1375.9533150272443 494.43419317976986L1358.264261473615 494.43419317976986L1358.264261473615 349.7488403464947L1375.9533150272443 346.7081211257662L1375.9533150272443 397.3427064100721Q1380.897788890516 395.438951767529 1386.5297297080392 394.38131029944947Q1392.1352294888607 393.35010986807197 1397.661406159576 393.35010986807197L1397.661406159576 393.35010986807197Q1409.4541085286623 393.35010986807197 1417.2806553924506 396.6816804925224Q1425.080761219537 400.0132511169728 1429.734383679087 406.01536644832396Q1434.4144471753386 411.9910407429731 1436.3182018178818 420.37284937750314Q1438.2219564604247 428.75465801203313 1438.2219564604247 438.8551340321923L1438.2219564604247 438.8551340321923L1438.2219564604247 494.43419317976986L1420.506461870093 494.43419317976986L1420.506461870093 442.6626433172785Q1420.506461870093 433.51404461839087 1419.2637331450996 427.03599062640393Q1418.0210044201065 420.55793663441705 1415.1653724562916 416.56534009241693Q1412.3097404924772 412.5727435504168 1407.5503538861194 410.7747530546817Q1402.7909672797618 408.95032152224456 1395.757651517033 408.95032152224456L1395.757651517033 408.95032152224456Q1392.9020195532185 408.95032152224456 1389.86130033249 409.3469370727744Q1386.8205811117614 409.7171115866022 1384.0442722580526 410.193050247238Q1381.294404441046 410.6689889078737 1379.099798394781 411.25069171531743Q1376.905192348516 411.8059534860592 1375.9533150272443 412.202569036589L1375.9533150272443 412.202569036589L1375.9533150272443 494.43419317976986ZM1461.4371866847696 445.12165973056335L1461.4371866847696 445.12165973056335Q1461.4371866847696 431.98046448967557 1465.244695969856 422.1972809099402Q1469.0522052549422 412.3876562935029 1475.3451719900152 405.909602301516Q1481.6116976883861 399.4315483095291 1489.8084190660022 396.2057418318866Q1497.9786994069163 392.95349431754215 1506.5455952983602 392.95349431754215L1506.5455952983602 392.95349431754215Q1526.5350190450627 392.95349431754215 1537.2171978726656 405.43366364088024Q1547.8729356635665 417.9138329642183 1547.8729356635665 443.40299234493415L1547.8729356635665 443.40299234493415Q1547.8729356635665 444.5663979598216 1547.8729356635665 446.36438845555676Q1547.8729356635665 448.1623789512919 1547.6878484066526 449.6959590800071L1547.6878484066526 449.6959590800071L1479.8930303027569 449.6959590800071Q1481.0564359176444 465.11108347726577 1488.8565417447307 473.122717597968Q1496.656647571817 481.1079106819682 1513.2087365472612 481.1079106819682L1513.2087365472612 481.1079106819682Q1522.5424225030627 481.1079106819682 1528.9147123482417 479.49500744314696Q1535.3134432301226 477.88210420432574 1538.539249707765 476.34852407561044L1538.539249707765 476.34852407561044L1541.024707157752 491.2083867021274Q1537.7724596434073 492.9006130510546 1529.6815024125992 494.80436769359767Q1521.5905451817912 496.7081223361408 1511.3049819047178 496.7081223361408L1511.3049819047178 496.7081223361408Q1498.3753149574463 496.7081223361408 1488.9358648548368 492.82128994094865Q1479.522855788929 488.9080165090545 1473.441417347472 482.05978800323976Q1467.333537869313 475.211559497425 1464.3985827953923 465.7721093948155Q1461.4371866847696 456.35910032890797 1461.4371866847696 445.12165973056335ZM1480.2896458532869 435.417799260934L1529.3906510088773 435.417799260934Q1529.6021793024934 423.4135685982317 1523.4149767142283 415.71922691795334Q1517.2277741259632 407.998444200973 1506.3605080414463 407.998444200973L1506.3605080414463 407.998444200973Q1500.2790695999893 407.998444200973 1495.5990061037373 410.3781375041519Q1490.9453836441876 412.7578308073307 1487.7195771665452 416.56534009241693Q1484.467329652201 420.37284937750314 1482.6693391564656 425.3173232407747Q1480.8449076240286 430.2882381407484 1480.2896458532869 435.417799260934L1480.2896458532869 435.417799260934ZM1609.930048803131 393.35010986807197L1609.930048803131 393.35010986807197Q1612.203977959502 393.35010986807197 1615.1653740701245 393.64096127179386Q1618.1267701807474 393.9053716388137 1620.9824021445618 394.38131029944947Q1623.8380341083766 394.85724896008526 1626.2177274115556 395.33318762072105Q1628.5974207147342 395.80912628135684 1629.7343852929196 396.2057418318866L1629.7343852929196 396.2057418318866L1626.693666072191 411.6208662291453Q1624.5783831360322 410.85407616478767 1619.7396734195684 409.8228757334101Q1614.8745226664028 408.7652342653306 1607.2595040962306 408.7652342653306L1607.2595040962306 408.7652342653306Q1602.3150302329586 408.7652342653306 1597.4498794797928 409.8228757334101Q1592.6111697633291 410.85407616478767 1591.077589634614 411.25069171531743L1591.077589634614 411.25069171531743L1591.077589634614 494.43419317976986L1573.3885360809845 494.43419317976986L1573.3885360809845 399.616635566443Q1579.6550617793555 397.3427064100721 1588.988747735157 395.33318762072105Q1598.3224336909586 393.35010986807197 1609.930048803131 393.35010986807197Z " fill="#ffffff" transform="matrix(0.536897381043915,0,0,0.5368973810439149,0,73.58604801864053)"/></g></svg>